# Blender 4.0.2
# www.blender.org
o Cube
v 0.450000 0.450000 -0.500000
v 0.450000 0.500000 -0.450000
v 0.500000 0.450000 -0.450000
v 0.450000 0.474967 -0.493320
v 0.474967 0.450000 -0.493320
v 0.473911 0.473911 -0.486832
v 0.474967 0.493320 -0.450000
v 0.450000 0.493320 -0.474967
v 0.473911 0.486832 -0.473911
v 0.493320 0.450000 -0.474967
v 0.493320 0.474967 -0.450000
v 0.486832 0.473911 -0.473911
v 0.450000 -0.500000 -0.450000
v 0.450000 -0.450000 -0.500000
v 0.500000 -0.450000 -0.450000
v 0.450000 -0.493320 -0.474967
v 0.474967 -0.493320 -0.450000
v 0.473911 -0.486832 -0.473911
v 0.474967 -0.450000 -0.493320
v 0.450000 -0.474967 -0.493320
v 0.473911 -0.473911 -0.486832
v 0.493320 -0.474967 -0.450000
v 0.493320 -0.450000 -0.474967
v 0.486832 -0.473911 -0.473911
v 0.500000 0.450000 0.450000
v 0.450000 0.500000 0.450000
v 0.450000 0.450000 0.500000
v 0.493320 0.474967 0.450000
v 0.493320 0.450000 0.474967
v 0.486832 0.473911 0.473911
v 0.450000 0.493320 0.474967
v 0.474967 0.493320 0.450000
v 0.473911 0.486832 0.473911
v 0.474967 0.450000 0.493320
v 0.450000 0.474967 0.493320
v 0.473911 0.473911 0.486832
v 0.500000 -0.450000 0.450000
v 0.450000 -0.450000 0.500000
v 0.450000 -0.500000 0.450000
v 0.493320 -0.450000 0.474967
v 0.493320 -0.474967 0.450000
v 0.486832 -0.473911 0.473911
v 0.450000 -0.474967 0.493320
v 0.474967 -0.450000 0.493320
v 0.473911 -0.473911 0.486832
v 0.474967 -0.493320 0.450000
v 0.450000 -0.493320 0.474967
v 0.473911 -0.486832 0.473911
v -0.450000 0.450000 -0.500000
v -0.500000 0.450000 -0.450000
v -0.450000 0.500000 -0.450000
v -0.474967 0.450000 -0.493320
v -0.450000 0.474967 -0.493320
v -0.473911 0.473911 -0.486832
v -0.493320 0.474967 -0.450000
v -0.493320 0.450000 -0.474967
v -0.486832 0.473911 -0.473911
v -0.450000 0.493320 -0.474967
v -0.474967 0.493320 -0.450000
v -0.473911 0.486832 -0.473911
v -0.500000 -0.450000 -0.450000
v -0.450000 -0.450000 -0.500000
v -0.450000 -0.500000 -0.450000
v -0.493320 -0.450000 -0.474967
v -0.493320 -0.474967 -0.450000
v -0.486832 -0.473911 -0.473911
v -0.450000 -0.474967 -0.493320
v -0.474967 -0.450000 -0.493320
v -0.473911 -0.473911 -0.486832
v -0.474967 -0.493320 -0.450000
v -0.450000 -0.493320 -0.474967
v -0.473911 -0.486832 -0.473911
v -0.500000 0.450000 0.450000
v -0.450000 0.450000 0.500000
v -0.450000 0.500000 0.450000
v -0.493320 0.450000 0.474967
v -0.493320 0.474967 0.450000
v -0.486832 0.473911 0.473911
v -0.450000 0.474967 0.493320
v -0.474967 0.450000 0.493320
v -0.473911 0.473911 0.486832
v -0.474967 0.493320 0.450000
v -0.450000 0.493320 0.474967
v -0.473911 0.486832 0.473911
v -0.450000 -0.500000 0.450000
v -0.450000 -0.450000 0.500000
v -0.500000 -0.450000 0.450000
v -0.450000 -0.493320 0.474967
v -0.474967 -0.493320 0.450000
v -0.473911 -0.486832 0.473911
v -0.474967 -0.450000 0.493320
v -0.450000 -0.474967 0.493320
v -0.473911 -0.473911 0.486832
v -0.493320 -0.474967 0.450000
v -0.493320 -0.450000 0.474967
v -0.486832 -0.473911 0.473911
vn -0.1296 -0.9831 -0.1296
vn 0.1296 -0.9831 -0.1296
vn 0.1296 -0.9831 0.1296
vn -0.1296 -0.9831 0.1296
vn -0.9831 -0.1296 0.1296
vn -0.9831 0.1296 0.1296
vn -0.9831 0.1296 -0.1296
vn -0.9831 -0.1296 -0.1296
vn 0.1296 -0.1296 0.9831
vn 0.1296 0.1296 0.9831
vn -0.1296 0.1296 0.9831
vn -0.1296 -0.1296 0.9831
vn 0.1296 0.9831 -0.1296
vn -0.1296 0.9831 -0.1296
vn -0.1296 0.9831 0.1296
vn 0.1296 0.9831 0.1296
vn 0.9831 -0.1296 -0.1296
vn 0.9831 0.1296 -0.1296
vn 0.9831 0.1296 0.1296
vn 0.9831 -0.1296 0.1296
vn 0.1296 0.1296 -0.9831
vn 0.1216 0.4915 -0.8623
vn 0.4473 0.4473 -0.7744
vn 0.4915 0.1216 -0.8623
vn 0.1216 0.8623 -0.4915
vn 0.4473 0.7744 -0.4473
vn 0.4915 0.8623 -0.1216
vn 0.8623 0.4915 -0.1216
vn 0.7744 0.4473 -0.4473
vn 0.8623 0.1216 -0.4915
vn 0.1216 -0.8623 -0.4915
vn 0.4473 -0.7744 -0.4473
vn 0.4915 -0.8623 -0.1216
vn 0.1216 -0.4915 -0.8623
vn 0.4473 -0.4473 -0.7744
vn 0.1296 -0.1296 -0.9831
vn 0.4915 -0.1216 -0.8623
vn 0.8623 -0.1216 -0.4915
vn 0.7744 -0.4473 -0.4473
vn 0.8623 -0.4915 -0.1216
vn 0.8623 0.4915 0.1216
vn 0.7744 0.4473 0.4473
vn 0.8623 0.1216 0.4915
vn 0.4915 0.8623 0.1216
vn 0.4473 0.7744 0.4473
vn 0.1216 0.8623 0.4915
vn 0.1216 0.4915 0.8623
vn 0.4473 0.4473 0.7744
vn 0.4915 0.1216 0.8623
vn 0.8623 -0.1216 0.4915
vn 0.7744 -0.4473 0.4473
vn 0.8623 -0.4915 0.1216
vn 0.4915 -0.1216 0.8623
vn 0.4473 -0.4473 0.7744
vn 0.1216 -0.4915 0.8623
vn 0.1216 -0.8623 0.4915
vn 0.4473 -0.7744 0.4473
vn 0.4915 -0.8623 0.1216
vn -0.1296 0.1296 -0.9831
vn -0.4915 0.1216 -0.8623
vn -0.4473 0.4473 -0.7744
vn -0.1216 0.4915 -0.8623
vn -0.8623 0.1216 -0.4915
vn -0.7744 0.4473 -0.4473
vn -0.8623 0.4915 -0.1216
vn -0.4915 0.8623 -0.1216
vn -0.4473 0.7744 -0.4473
vn -0.1216 0.8623 -0.4915
vn -0.8623 -0.1216 -0.4915
vn -0.7744 -0.4473 -0.4473
vn -0.8623 -0.4915 -0.1216
vn -0.4915 -0.1216 -0.8623
vn -0.4473 -0.4473 -0.7744
vn -0.1296 -0.1296 -0.9831
vn -0.1216 -0.4915 -0.8623
vn -0.1216 -0.8623 -0.4915
vn -0.4473 -0.7744 -0.4473
vn -0.4915 -0.8623 -0.1216
vn -0.8623 0.1216 0.4915
vn -0.7744 0.4473 0.4473
vn -0.8623 0.4915 0.1216
vn -0.4915 0.1216 0.8623
vn -0.4473 0.4473 0.7744
vn -0.1216 0.4915 0.8623
vn -0.1216 0.8623 0.4915
vn -0.4473 0.7744 0.4473
vn -0.4915 0.8623 0.1216
vn -0.1216 -0.8623 0.4915
vn -0.4473 -0.7744 0.4473
vn -0.4915 -0.8623 0.1216
vn -0.1216 -0.4915 0.8623
vn -0.4473 -0.4473 0.7744
vn -0.4915 -0.1216 0.8623
vn -0.8623 -0.1216 0.4915
vn -0.7744 -0.4473 0.4473
vn -0.8623 -0.4915 0.1216
vt 0.137500 0.512500
vt 0.362500 0.512500
vt 0.362500 0.737500
vt 0.137500 0.737500
vt 0.387500 0.012500
vt 0.612500 0.012500
vt 0.612500 0.237500
vt 0.387500 0.237500
vt 0.387500 0.762500
vt 0.612500 0.762500
vt 0.612500 0.987500
vt 0.387500 0.987500
vt 0.637500 0.512500
vt 0.862500 0.512500
vt 0.862500 0.737500
vt 0.637500 0.737500
vt 0.387500 0.512500
vt 0.612500 0.512500
vt 0.612500 0.737500
vt 0.387500 0.737500
vt 0.612500 0.487500
vt 0.618742 0.487500
vt 0.618478 0.493478
vt 0.612500 0.493742
vt 0.625000 0.487500
vt 0.625000 0.493478
vt 0.631258 0.512500
vt 0.631522 0.500000
vt 0.637500 0.500000
vt 0.618742 0.512500
vt 0.618478 0.506522
vt 0.612500 0.506258
vt 0.618478 0.496708
vt 0.362500 0.506258
vt 0.368478 0.506522
vt 0.368742 0.512500
vt 0.362500 0.500000
vt 0.368478 0.500000
vt 0.387500 0.487500
vt 0.387500 0.493742
vt 0.375000 0.493478
vt 0.375000 0.487500
vt 0.387500 0.506258
vt 0.381522 0.506522
vt 0.381258 0.512500
vt 0.371708 0.506522
vt 0.618742 0.737500
vt 0.618478 0.743478
vt 0.612500 0.743742
vt 0.631258 0.737500
vt 0.631522 0.750000
vt 0.637500 0.750000
vt 0.625000 0.762500
vt 0.618742 0.762500
vt 0.618478 0.756522
vt 0.625000 0.756522
vt 0.612500 0.756258
vt 0.618478 0.753292
vt 0.387500 0.743742
vt 0.381522 0.743478
vt 0.381258 0.737500
vt 0.387500 0.756258
vt 0.375000 0.756522
vt 0.375000 0.762500
vt 0.362500 0.750000
vt 0.362500 0.743742
vt 0.368478 0.743478
vt 0.368478 0.750000
vt 0.368742 0.737500
vt 0.371708 0.743478
vt 0.612500 0.262500
vt 0.612500 0.256258
vt 0.618478 0.256522
vt 0.618742 0.262500
vt 0.612500 0.243742
vt 0.618478 0.243478
vt 0.618742 0.237500
vt 0.625000 0.237500
vt 0.625000 0.243478
vt 0.862500 0.500000
vt 0.875000 0.506522
vt 0.875000 0.512500
vt 0.625000 0.262500
vt 0.625000 0.250000
vt 0.618478 0.246708
vt 0.387500 0.243742
vt 0.375000 0.243478
vt 0.375000 0.237500
vt 0.387500 0.256258
vt 0.375000 0.256522
vt 0.387500 0.262500
vt 0.375000 0.262500
vt 0.137500 0.500000
vt 0.137500 0.506258
vt 0.131522 0.506522
vt 0.131522 0.500000
vt 0.131258 0.512500
vt 0.125000 0.512500
vt 0.125000 0.506522
vt 0.612500 0.006258
vt 0.618478 0.006522
vt 0.618742 0.012500
vt 0.612500 0.000000
vt 0.618478 0.000000
vt 0.618742 0.987500
vt 0.618478 1.000000
vt 0.612500 1.000000
vt 0.625000 0.987500
vt 0.625000 1.000000
vt 0.875000 0.737500
vt 0.875000 0.743478
vt 0.862500 0.750000
vt 0.625000 0.012500
vt 0.625000 0.006522
vt 0.137500 0.743742
vt 0.131522 0.743478
vt 0.131258 0.737500
vt 0.137500 0.750000
vt 0.131522 0.750000
vt 0.387500 1.000000
vt 0.375000 0.993478
vt 0.375000 0.987500
vt 0.387500 0.000000
vt 0.387500 0.006258
vt 0.375000 0.006522
vt 0.375000 0.000000
vt 0.375000 0.012500
vt 0.125000 0.737500
vt 0.125000 0.743478
s 1
f 63/1/1 13/2/2 39/3/3 85/4/4
f 87/5/5 73/6/6 50/7/7 61/8/8
f 38/9/9 27/10/10 74/11/11 86/12/12
f 2/13/13 51/14/14 75/15/15 26/16/16
f 15/17/17 3/18/18 25/19/19 37/20/20
f 1/21/21 4/22/22 6/23/23 5/24/24
f 4/22/22 8/25/25 9/26/26 6/23/23
f 2/13/13 7/27/27 9/28/26 8/29/25
f 7/27/27 11/30/28 12/31/29 9/28/26
f 3/18/18 10/32/30 12/31/29 11/30/28
f 10/32/30 5/24/24 6/23/23 12/31/29
f 6/23/23 9/26/26 12/33/29
f 13/2/2 16/34/31 18/35/32 17/36/33
f 16/34/31 20/37/34 21/38/35 18/35/32
f 14/39/36 19/40/37 21/41/35 20/42/34
f 19/40/37 23/43/38 24/44/39 21/41/35
f 15/17/17 22/45/40 24/44/39 23/43/38
f 22/45/40 17/36/33 18/35/32 24/44/39
f 18/35/32 21/38/35 24/46/39
f 25/19/19 28/47/41 30/48/42 29/49/43
f 28/47/41 32/50/44 33/51/45 30/48/42
f 26/16/16 31/52/46 33/51/45 32/50/44
f 31/53/46 35/54/47 36/55/48 33/56/45
f 27/10/10 34/57/49 36/55/48 35/54/47
f 34/57/49 29/49/43 30/48/42 36/55/48
f 30/58/42 33/56/45 36/55/48
f 37/20/20 40/59/50 42/60/51 41/61/52
f 40/59/50 44/62/53 45/63/54 42/60/51
f 38/9/9 43/64/55 45/63/54 44/62/53
f 43/65/55 47/66/56 48/67/57 45/68/54
f 39/3/3 46/69/58 48/67/57 47/66/56
f 46/69/58 41/61/52 42/60/51 48/67/57
f 42/70/51 45/68/54 48/67/57
f 49/71/59 52/72/60 54/73/61 53/74/62
f 52/72/60 56/75/63 57/76/64 54/73/61
f 50/7/7 55/77/65 57/76/64 56/75/63
f 55/77/65 59/78/66 60/79/67 57/76/64
f 51/14/14 58/80/68 60/81/67 59/82/66
f 58/83/68 53/74/62 54/73/61 60/84/67
f 54/85/61 57/76/64 60/79/67
f 61/8/8 64/86/69 66/87/70 65/88/71
f 64/86/69 68/89/72 69/90/73 66/87/70
f 62/91/74 67/92/75 69/90/73 68/89/72
f 67/93/75 71/94/76 72/95/77 69/96/73
f 63/1/1 70/97/78 72/95/77 71/94/76
f 70/97/78 65/98/71 66/99/70 72/95/77
f 66/99/70 69/96/73 72/95/77
f 73/6/6 76/100/79 78/101/80 77/102/81
f 76/100/79 80/103/82 81/104/83 78/101/80
f 74/11/11 79/105/84 81/106/83 80/107/82
f 79/105/84 83/108/85 84/109/86 81/106/83
f 75/15/15 82/110/87 84/111/86 83/112/85
f 82/113/87 77/102/81 78/101/80 84/114/86
f 78/101/80 81/104/83 84/114/86
f 85/4/4 88/115/88 90/116/89 89/117/90
f 88/115/88 92/118/91 93/119/92 90/116/89
f 86/12/12 91/120/93 93/121/92 92/122/91
f 91/123/93 95/124/94 96/125/95 93/126/92
f 87/5/5 94/127/96 96/125/95 95/124/94
f 94/128/96 89/117/90 90/116/89 96/129/95
f 90/116/89 93/119/92 96/129/95
f 63/1/1 85/4/4 89/117/90 70/97/78
f 70/97/78 89/117/90 94/128/96 65/98/71
f 65/88/71 94/127/96 87/5/5 61/8/8
f 13/2/2 63/1/1 71/94/76 16/34/31
f 16/34/31 71/94/76 67/93/75 20/37/34
f 20/42/34 67/92/75 62/91/74 14/39/36
f 3/18/18 15/17/17 23/43/38 10/32/30
f 10/32/30 23/43/38 19/40/37 5/24/24
f 5/24/24 19/40/37 14/39/36 1/21/21
f 86/12/12 74/11/11 80/107/82 91/120/93
f 91/123/93 80/103/82 76/100/79 95/124/94
f 95/124/94 76/100/79 73/6/6 87/5/5
f 27/10/10 38/9/9 44/62/53 34/57/49
f 34/57/49 44/62/53 40/59/50 29/49/43
f 29/49/43 40/59/50 37/20/20 25/19/19
f 49/71/59 62/91/74 68/89/72 52/72/60
f 52/72/60 68/89/72 64/86/69 56/75/63
f 56/75/63 64/86/69 61/8/8 50/7/7
f 26/16/16 75/15/15 83/112/85 31/52/46
f 31/53/46 83/108/85 79/105/84 35/54/47
f 35/54/47 79/105/84 74/11/11 27/10/10
f 2/13/13 26/16/16 32/50/44 7/27/27
f 7/27/27 32/50/44 28/47/41 11/30/28
f 11/30/28 28/47/41 25/19/19 3/18/18
f 85/4/4 39/3/3 47/66/56 88/115/88
f 88/115/88 47/66/56 43/65/55 92/118/91
f 92/122/91 43/64/55 38/9/9 86/12/12
f 75/15/15 51/14/14 59/82/66 82/110/87
f 82/113/87 59/78/66 55/77/65 77/102/81
f 77/102/81 55/77/65 50/7/7 73/6/6
f 51/14/14 2/13/13 8/29/25 58/80/68
f 58/83/68 8/25/25 4/22/22 53/74/62
f 53/74/62 4/22/22 1/21/21 49/71/59
f 39/3/3 13/2/2 17/36/33 46/69/58
f 46/69/58 17/36/33 22/45/40 41/61/52
f 41/61/52 22/45/40 15/17/17 37/20/20
f 62/91/74 49/71/59 1/21/21 14/39/36
